<!-- Generated by IcoMoon.io -->
<svg version="1.1" xmlns="http://www.w3.org/2000/svg" width="34" height="32" viewBox="0 0 34 32">
<title>basket-red</title>
<path fill="#e84d37" d="M9.421 6.45l1.654 14.35h16.72l1.882-14.35z"></path>
<path fill="#343434" d="M14.374 28.8c0 1.767-1.433 3.2-3.2 3.2s-3.2-1.433-3.2-3.2c0-1.767 1.433-3.2 3.2-3.2s3.2 1.433 3.2 3.2z"></path>
<path fill="#343434" d="M28.774 28.8c0 1.767-1.433 3.2-3.2 3.2s-3.2-1.433-3.2-3.2c0-1.767 1.433-3.2 3.2-3.2s3.2 1.433 3.2 3.2z"></path>
<path fill="#343434" d="M9.051 3.25l-0.376-3.25h-8.675v3.2h5.824l2.4 20.8h22.381l2.718-20.75h-24.272zM27.795 20.8h-16.72l-1.654-14.35h20.256l-1.882 14.35z"></path>
</svg>
