<!-- Generated by IcoMoon.io -->
<svg version="1.1" xmlns="http://www.w3.org/2000/svg" width="81" height="32" viewBox="0 0 81 32">
<title>bg-post</title>
<path fill="#f8f7f4" d="M81.455 29.818c0 1.2-0.982 2.182-2.182 2.182h-77.091c-1.2 0-2.182-0.982-2.182-2.182v-27.636c0-1.2 0.982-2.182 2.182-2.182h77.091c1.2 0 2.182 0.982 2.182 2.182v27.636z"></path>
<path fill="#f8f7f4" d="M79.273 0h-76.258l-3.015 3.015v26.803c0 1.2 0.982 2.182 2.182 2.182h77.091c1.2 0 2.182-0.982 2.182-2.182v-27.636c0-1.2-0.982-2.182-2.182-2.182zM1.49 0.115c-0.649 0.225-1.151 0.726-1.371 1.36l-0.005 0.015 1.375-1.375z"></path>
<path fill="#92cdff" d="M3.017 0h-0.835c-0.241 0-0.472 0.041-0.689 0.114l-1.379 1.379c-0.072 0.205-0.114 0.442-0.114 0.689v0.835l3.017-3.017z"></path>
<path fill="#fe9e90" d="M0 5.835l5.835-5.835h-1.41l-4.425 4.425z"></path>
<path fill="#92cdff" d="M0 8.655l8.655-8.655h-1.41l-7.245 7.245z"></path>
<path fill="#fe9e90" d="M0 11.475l11.475-11.475h-1.41l-10.065 10.065z"></path>
<path fill="#92cdff" d="M0 14.295l14.295-14.295h-1.41l-12.885 12.885z"></path>
<path fill="#fe9e90" d="M0 17.115l17.115-17.115h-1.41l-15.705 15.705z"></path>
<path fill="#92cdff" d="M0 19.935l19.935-19.935h-1.41l-18.525 18.525z"></path>
<path fill="#fe9e90" d="M0 22.755l22.755-22.755h-1.41l-21.345 21.345z"></path>
<path fill="#92cdff" d="M0 25.575l25.575-25.575h-1.41l-24.165 24.165z"></path>
<path fill="#fe9e90" d="M0 28.395l28.395-28.395h-1.41l-26.985 26.985z"></path>
<path fill="#92cdff" d="M29.805 0l-29.805 29.818c0 0.399 0.111 0.773 0.3 1.096l30.915-30.915h-1.41z"></path>
<path fill="#fe9e90" d="M2.042 31.993l31.993-31.993h-1.41l-31.639 31.639c0.299 0.2 0.66 0.328 1.050 0.353l0.006 0z"></path>
<path fill="#92cdff" d="M4.855 32l32-32h-1.41l-32 32z"></path>
<path fill="#fe9e90" d="M7.674 32l32-32h-1.41l-32 32z"></path>
<path fill="#92cdff" d="M10.494 32l32-32h-1.41l-32 32z"></path>
<path fill="#fe9e90" d="M13.314 32l32-32h-1.41l-32 32z"></path>
<path fill="#92cdff" d="M16.134 32l32-32h-1.41l-32 32z"></path>
<path fill="#fe9e90" d="M18.954 32l32-32h-1.41l-32 32z"></path>
<path fill="#92cdff" d="M21.774 32l32-32h-1.41l-32 32z"></path>
<path fill="#fe9e90" d="M24.594 32l32-32h-1.41l-32 32z"></path>
<path fill="#92cdff" d="M27.414 32l32-32h-1.41l-32 32z"></path>
<path fill="#fe9e90" d="M30.234 32l32-32h-1.41l-32 32z"></path>
<path fill="#92cdff" d="M33.054 32l32-32h-1.41l-32 32z"></path>
<path fill="#fe9e90" d="M35.874 32l32-32h-1.41l-32 32z"></path>
<path fill="#92cdff" d="M38.694 32l32-32h-1.41l-32 32z"></path>
<path fill="#fe9e90" d="M41.514 32l32-32h-1.41l-32 32z"></path>
<path fill="#92cdff" d="M44.334 32l32-32h-1.41l-32 32z"></path>
<path fill="#fe9e90" d="M47.154 32l32-32h-1.41l-32 32z"></path>
<path fill="#92cdff" d="M49.974 32l31.077-31.076c-0.196-0.274-0.446-0.497-0.736-0.657l-0.011-0.006-31.739 31.739h1.41z"></path>
<path fill="#fe9e90" d="M52.793 32l28.661-28.661v-1.157c0-0.081-0.005-0.16-0.014-0.239l-30.057 30.057h1.41z"></path>
<path fill="#92cdff" d="M55.613 32l25.841-25.841v-1.41l-27.251 27.251z"></path>
<path fill="#fe9e90" d="M58.433 32l23.021-23.021v-1.41l-24.431 24.431z"></path>
<path fill="#92cdff" d="M61.253 32l20.201-20.201v-1.41l-21.611 21.611z"></path>
<path fill="#fe9e90" d="M64.073 32l17.381-17.381v-1.41l-18.791 18.791z"></path>
<path fill="#92cdff" d="M66.893 32l14.561-14.561v-1.41l-15.972 15.971z"></path>
<path fill="#fe9e90" d="M69.713 32l11.741-11.741v-1.41l-13.152 13.152z"></path>
<path fill="#92cdff" d="M72.533 32l8.921-8.921v-1.41l-10.331 10.331z"></path>
<path fill="#fe9e90" d="M75.353 32l6.102-6.102v-1.41l-7.512 7.512z"></path>
<path fill="#92cdff" d="M78.173 32l3.282-3.282v-1.41l-4.692 4.691z"></path>
<path fill="#fe9e90" d="M81.425 30.158l-1.813 1.813c0.929-0.147 1.666-0.884 1.813-1.813z"></path>
</svg>
