<!-- Generated by IcoMoon.io -->
<svg version="1.1" xmlns="http://www.w3.org/2000/svg" width="32" height="32" viewBox="0 0 32 32">
<title>checkbox-off</title>
<path d="M27.826 2.783c0.754 0 1.391 0.637 1.391 1.391v23.652c0 0.754-0.637 1.391-1.391 1.391h-23.652c-0.754 0-1.391-0.637-1.391-1.391v-23.652c0-0.754 0.637-1.391 1.391-1.391h23.652zM27.826 0h-23.652c-2.296 0-4.174 1.878-4.174 4.174v23.652c0 2.296 1.878 4.174 4.174 4.174h23.652c2.296 0 4.174-1.878 4.174-4.174v-23.652c0-2.296-1.878-4.174-4.174-4.174z"></path>
</svg>
