<!-- Generated by IcoMoon.io -->
<svg version="1.1" xmlns="http://www.w3.org/2000/svg" width="38" height="32" viewBox="0 0 38 32">
<title>checkbox-on</title>
<path d="M10.136 10.415l-3.936 3.936 10.829 10.829 19.384-19.384-3.935-3.936-15.449 15.446z"></path>
<path d="M29.217 27.826c0 0.754-0.637 1.391-1.391 1.391h-23.652c-0.754 0-1.391-0.637-1.391-1.391v-23.652c0-0.754 0.637-1.391 1.391-1.391h23.524l2.205-2.205c-0.594-0.358-1.31-0.572-2.076-0.577h-23.654c-2.296 0-4.174 1.878-4.174 4.174v23.652c0 2.296 1.878 4.174 4.174 4.174h23.652c2.296 0 4.174-1.878 4.174-4.174v-13.675l-2.783 2.783v10.893z"></path>
</svg>
