<!-- Generated by IcoMoon.io -->
<svg version="1.1" xmlns="http://www.w3.org/2000/svg" width="32" height="32" viewBox="0 0 32 32">
<title>cow</title>
<path d="M16 0c-8.837 0-16 7.163-16 16s7.163 16 16 16 16-7.163 16-16-7.163-16-16-16zM16 30.694c-8.103 0-14.694-6.592-14.694-14.694s6.591-14.694 14.694-14.694c8.102 0 14.694 6.591 14.694 14.694s-6.592 14.694-14.694 14.694z"></path>
<path d="M22.734 12.632c0.562-1.117 1.228-3.257 0.283-6.192-0.087-0.265-0.332-0.453-0.622-0.453-0.244 0-0.456 0.133-0.568 0.331l-0.002 0.003c-0.83 1.481-2.637 3.871-3.949 3.98-0.020 0.001-0.035 0.012-0.054 0.016-0.541-0.111-1.169-0.18-1.811-0.193l-0.011-0c-0.067 0-0.856 0.006-1.829 0.191-0.016-0.003-0.029-0.012-0.046-0.014-1.309-0.109-3.117-2.499-3.95-3.98 0.020-0.060 0.031-0.129 0.031-0.2 0-0.361-0.292-0.653-0.653-0.653s-0.653 0.292-0.653 0.653c0 0.117 0.031 0.228 0.085 0.323l-0.002-0.003c-0.946 2.935-0.279 5.075 0.283 6.192-1.139 0.144-2.582 0.507-3.107 1.429-0.253 0.445-0.248 0.956 0.016 1.437 0.336 0.613 0.914 0.813 1.524 0.813 0.533 0 1.089-0.152 1.534-0.315-0.003 0.353 0.017 0.705 0.084 1.053 0.188 0.977 0.739 2.375 1.142 3.394 0.123 0.313 0.259 0.656 0.332 0.865-0.153 0.401-0.439 1.183-0.5 1.622-0.073 0.523 0.074 1.402 0.732 2.159 0.942 1.083 2.616 1.633 4.976 1.633s4.033-0.549 4.976-1.633c0.658-0.756 0.805-1.636 0.732-2.159-0.061-0.439-0.346-1.221-0.501-1.622 0.074-0.208 0.209-0.551 0.332-0.862 0.403-1.021 0.955-2.419 1.143-3.397 0.056-0.297 0.089-0.638 0.089-0.986 0-0.023-0-0.046-0-0.068l0 0.003c0.443 0.162 0.998 0.313 1.529 0.313 0.611 0 1.189-0.2 1.524-0.813 0.264-0.481 0.269-0.992 0.016-1.437-0.523-0.921-1.966-1.285-3.105-1.428zM22.111 8.299c0.279 1.998-0.311 3.368-0.673 3.992-0.169-0.207-0.339-0.393-0.52-0.568l-0.002-0.002c-0.355-0.344-0.783-0.61-1.235-0.822 0.968-0.686 1.829-1.746 2.429-2.601zM9.889 8.3c0.598 0.852 1.456 1.906 2.42 2.593-0.458 0.215-0.887 0.486-1.236 0.838-0.18 0.182-0.348 0.372-0.504 0.569-0.359-0.616-0.959-1.994-0.681-4zM7.321 14.87c-0.058-0.106-0.041-0.137-0.026-0.163 0.146-0.255 0.906-0.657 2.357-0.805-0.076 0.189-0.142 0.38-0.197 0.573-0.826 0.44-1.958 0.713-2.134 0.395zM21.399 16.803c-0.165 0.857-0.691 2.19-1.075 3.163-0.26 0.66-0.398 1.014-0.446 1.226l-0.043 0.197 0.074 0.187c0.185 0.464 0.464 1.246 0.504 1.535 0.001 0.006 0.063 0.56-0.424 1.121-0.47 0.539-1.543 1.183-3.99 1.183s-3.521-0.644-3.99-1.183c-0.487-0.56-0.425-1.115-0.425-1.121 0.040-0.288 0.319-1.072 0.504-1.536l0.074-0.187-0.043-0.197c-0.047-0.213-0.185-0.567-0.446-1.228-0.383-0.972-0.909-2.304-1.074-3.161-0.276-1.435 0.248-2.988 1.401-4.152 0.988-0.998 3.222-1.22 3.999-1.222 0.761 0 2.964 0.221 4.009 1.232 1.359 1.315 1.61 3.002 1.39 4.143zM24.679 14.87c-0.172 0.313-1.289 0.046-2.115-0.387-0.067-0.24-0.133-0.433-0.209-0.621l0.015 0.042c1.435 0.15 2.19 0.549 2.335 0.803 0.016 0.027 0.033 0.057-0.026 0.164z"></path>
</svg>
