<!-- Generated by IcoMoon.io -->
<svg version="1.1" xmlns="http://www.w3.org/2000/svg" width="32" height="32" viewBox="0 0 32 32">
<title>eco</title>
<path d="M16 0c-8.837 0-16 7.163-16 16s7.163 16 16 16 16-7.163 16-16-7.163-16-16-16zM16 30.694c-8.103 0-14.694-6.592-14.694-14.694s6.591-14.694 14.694-14.694c8.102 0 14.694 6.591 14.694 14.694s-6.592 14.694-14.694 14.694z"></path>
<path d="M22.731 17.473c-0.294-6.2-6.006-12.208-6.26-12.472-0.010-0.010-0.022-0.015-0.031-0.024-0.023-0.021-0.048-0.040-0.075-0.057l-0.002-0.001c-0.024-0.017-0.052-0.034-0.081-0.049l-0.004-0.002c-0.012-0.006-0.021-0.014-0.033-0.020-0.018-0.007-0.037-0.007-0.054-0.013-0.054-0.018-0.117-0.029-0.182-0.029-0.004 0-0.009 0-0.013 0h0.001c-0.029 0-0.058 0.001-0.088 0.005-0.039 0.006-0.074 0.015-0.108 0.026l0.004-0.001c-0.016 0.005-0.034 0.005-0.050 0.012-0.012 0.005-0.020 0.014-0.032 0.019-0.033 0.016-0.062 0.033-0.089 0.053l0.002-0.001c-0.029 0.019-0.054 0.039-0.078 0.060l0.001-0c-0.010 0.008-0.022 0.014-0.030 0.024-0.254 0.264-5.969 6.275-6.261 12.477-0.005 0.044-0.011 0.087-0.007 0.132-0.008 0.237-0.011 0.475-0.002 0.712 0.241 6.698 6.516 8.372 6.58 8.389 0.048 0.013 0.104 0.020 0.161 0.020s0.113-0.007 0.166-0.021l-0.005 0.001c0.063-0.016 6.339-1.691 6.579-8.389 0.009-0.237 0.006-0.475-0.002-0.711 0.004-0.048-0.003-0.093-0.008-0.139zM10.96 15.184c1.449 1.344 3.506 2.299 4.387 2.672v2.973c-1.599-0.781-4.061-2.182-4.769-3.414 0.057-0.818 0.193-1.579 0.401-2.309l-0.019 0.079zM12.282 11.856c0.988 1.102 2.352 1.728 3.065 1.998v2.573c-1.080-0.496-2.889-1.447-3.929-2.64 0.3-0.783 0.591-1.419 0.914-2.035l-0.050 0.105zM20.583 13.785c-1.038 1.191-2.849 2.144-3.93 2.641v-2.572c0.713-0.27 2.079-0.896 3.066-2 0.319 0.62 0.611 1.267 0.864 1.931zM16.653 12.439v-5.23c0.815 1.001 1.602 2.115 2.31 3.283l0.074 0.131c-0.622 0.897-1.656 1.486-2.384 1.815zM16.653 20.828v-2.973c0.882-0.372 2.938-1.328 4.388-2.672 0.199 0.737 0.336 1.484 0.381 2.232-0.707 1.23-3.171 2.631-4.769 3.414zM15.347 12.441c-0.727-0.327-1.759-0.914-2.383-1.815 0.782-1.3 1.569-2.415 2.426-3.469l-0.043 0.055v5.23zM10.699 19.478c1.52 1.295 3.716 2.37 4.648 2.796v2.875c-1.366-0.59-4.024-2.175-4.648-5.671zM16.653 25.157v-2.883c0.933-0.426 3.129-1.502 4.65-2.798-0.62 3.534-3.278 5.102-4.65 5.681z"></path>
</svg>
