<!-- Generated by IcoMoon.io -->
<svg version="1.1" xmlns="http://www.w3.org/2000/svg" width="28" height="32" viewBox="0 0 28 32">
<title>filter-button</title>
<path fill="#ababab" opacity="0.3" d="M13.913 27.826c-7.684 0-13.913-6.23-13.913-13.913v2.783c0 7.683 6.229 13.913 13.913 13.913 7.683 0 13.913-6.23 13.913-13.913v-2.783c0 7.683-6.23 13.913-13.913 13.913z"></path>
<path fill="#fff" d="M27.826 13.913c0 7.684-6.229 13.913-13.913 13.913s-13.913-6.229-13.913-13.913c0-7.684 6.229-13.913 13.913-13.913s13.913 6.229 13.913 13.913z"></path>
<path fill="#ababab" d="M16.696 13.913c0 1.537-1.246 2.783-2.783 2.783s-2.783-1.246-2.783-2.783c0-1.537 1.246-2.783 2.783-2.783s2.783 1.246 2.783 2.783z"></path>
</svg>
