<!-- Generated by IcoMoon.io -->
<svg version="1.1" xmlns="http://www.w3.org/2000/svg" width="32" height="32" viewBox="0 0 32 32">
<title>hit</title>
<path fill="#fff" d="M32 16c0 8.837-7.163 16-16 16s-16-7.163-16-16c0-8.837 7.163-16 16-16s16 7.163 16 16z"></path>
<path fill="#231f20" d="M10.484 9.584c-0.48 1.407-0.901 2.824-1.297 4.246-0.285-1.502-0.483-3.020-0.503-4.572-0.003-0.226-1.017-0.058-1.014 0.272 0.027 2.226 0.42 4.382 0.916 6.522-0.627 2.403-1.212 4.816-1.877 7.224-0.057 0.207 0.929 0.072 0.999-0.18 0.473-1.713 0.905-3.428 1.341-5.141 0.422 1.681 0.862 3.361 1.192 5.066 0.051 0.267 1.071 0.024 1.014-0.272-0.453-2.341-1.112-4.635-1.65-6.949 0.56-2.143 1.155-4.279 1.877-6.395 0.065-0.189-0.911-0.076-0.998 0.18zM18.043 9.861c0.026-0.549-1.007-0.417-1.030 0.067-0.002 0.042-0.002 0.083-0.004 0.125-0.020 0.034-0.044 0.067-0.053 0.107-0.527 2.341-1.37 4.579-2.128 6.851-0.338 1.012-0.598 2.045-0.874 3.072-0.073-3.474-0.071-6.944-0.087-10.424-0.003-0.547-1.031-0.403-1.029 0.070 0.019 4.373 0.009 8.73 0.159 13.1-0.013 0.034-0.020 0.074-0.020 0.116 0 0.015 0.001 0.029 0.003 0.044l-0-0.002 0.034 0.233c0.065 0.449 1.028 0.252 1.020-0.166 0.003-0.006 0.008-0.009 0.011-0.015 0.858-2.188 1.3-4.507 2.043-6.735 0.273-0.817 0.55-1.63 0.819-2.446-0.037 3.141 0.030 6.279 0.111 9.422 0.014 0.531 0.829 0.404 1.002 0.034l0.029-0.062c0.059-0.125 0.046-0.222-0.008-0.293-0.111-4.371-0.204-8.727 0.003-13.098zM24.824 9.264c-1.657 0.199-3.311 0.119-4.972 0.025-0.258-0.015-1.175 0.446-0.641 0.476 0.573 0.033 1.145 0.057 1.716 0.076-0.049 0.043-0.084 0.088-0.082 0.139 0.155 4.411-0.553 9.043 0.1 13.411 0.033 0.222 1.054 0.003 1.014-0.272-0.645-4.317 0.036-8.892-0.097-13.256 0.932 0.006 1.863-0.027 2.796-0.14 0.45-0.053 0.876-0.545 0.166-0.46z"></path>
</svg>
