<!-- Generated by IcoMoon.io -->
<svg version="1.1" xmlns="http://www.w3.org/2000/svg" width="32" height="32" viewBox="0 0 32 32">
<title>ice-cream</title>
<path d="M16 0c-8.837 0-16 7.163-16 16s7.163 16 16 16 16-7.163 16-16-7.163-16-16-16zM16 30.694c-8.103 0-14.694-6.592-14.694-14.694s6.591-14.694 14.694-14.694c8.102 0 14.694 6.591 14.694 14.694s-6.592 14.694-14.694 14.694z"></path>
<path d="M16 4.98c-2.844 0-5.185 2.141-5.509 4.898h-0.042v11.048h11.102v-11.048h-0.041c-0.325-2.757-2.666-4.898-5.51-4.898zM20.245 19.619h-8.49v-6.045c0.18 0.22 0.46 0.412 1.007 0.412 0.844 0 1.388-0.466 1.388-1.061v-0.571c0-0.308 0.25-0.558 0.558-0.558s0.558 0.25 0.558 0.558v0c0 0.006-0.003 0.011-0.003 0.016s0.003 0.007 0.003 0.011v2.15s-0.020 1.197 1.388 1.197c1.377 0 1.388-1.143 1.388-1.143v-1.469h0.001l-0.001-0.003c0-0.485 0.393-0.878 0.878-0.878s0.878 0.393 0.878 0.878v0c0 0.020 0.014 0.057 0.014 0.057s0.022 0.398 0.436 0.584v5.866zM15.020 26.204c0 0.541 0.439 0.98 0.98 0.98s0.98-0.439 0.98-0.98v0-4.653h-1.959v4.653z"></path>
</svg>
