<!-- Generated by IcoMoon.io -->
<svg version="1.1" xmlns="http://www.w3.org/2000/svg" width="21" height="32" viewBox="0 0 21 32">
<title>icon-right-small</title>
<path d="M19.299 15.045l-14.688-14.691c-0.244-0.244-0.582-0.395-0.955-0.395-0.746 0-1.35 0.604-1.35 1.35 0 0.373 0.151 0.71 0.395 0.955v0l13.733 13.736-13.736 13.733c-0.224 0.241-0.361 0.564-0.361 0.92 0 0.747 0.605 1.352 1.352 1.352 0.355 0 0.678-0.137 0.92-0.361l-0.001 0.001 14.691-14.691c0.246-0.244 0.398-0.581 0.398-0.955s-0.152-0.711-0.398-0.955l-0-0z"></path>
</svg>
