<!-- Generated by IcoMoon.io -->
<svg version="1.1" xmlns="http://www.w3.org/2000/svg" width="32" height="32" viewBox="0 0 32 32">
<title>instagram</title>
<path d="M20.916 16c0 2.727-2.211 4.939-4.939 4.939s-4.939-2.211-4.939-4.939v0c0-0.394 0.051-0.773 0.138-1.14h-0.897v6.838h11.396v-6.838h-0.897c0.086 0.367 0.137 0.746 0.137 1.14z"></path>
<path d="M15.978 18.659c1.466 0 2.659-1.193 2.659-2.659s-1.193-2.659-2.659-2.659c-1.466 0-2.659 1.193-2.659 2.659s1.192 2.659 2.659 2.659zM18.637 10.302h3.039v3.039h-3.039z"></path>
<path d="M16 0c-8.836 0-16 7.164-16 16 0 8.837 7.164 16 16 16 8.837 0 16-7.163 16-16s-7.163-16-16-16zM23.955 21.698c-0.003 1.257-1.022 2.276-2.279 2.279h-11.397c-1.257-0.003-2.276-1.022-2.279-2.279v-11.396c0.004-1.257 1.022-2.275 2.279-2.279h11.396c1.257 0.004 2.275 1.022 2.279 2.279v11.396z"></path>
</svg>
