<!-- Generated by IcoMoon.io -->
<svg version="1.1" xmlns="http://www.w3.org/2000/svg" width="77" height="32" viewBox="0 0 77 32">
<title>logo</title>
<path d="M29.646 21.378c-0.416-0.125-1.076 0.186-1.076 0.186s-1.514 1.256-8.92-0.189c-5.454-1.064-8.291-0.959-8.291-0.959s0.916-6.25 0.666-8c0 0 0-0.459-0.541-0.459s-0.875 0.209-0.875 0.5 0.084 2.209-0.125 3.541c0 0-0.709 2.125-3.083 1.959s-2.875-1.875-3.083-3.041-0.333-4.416 0.292-5.75c0 0 3.584 0.125 5.834-1.792s2.125-3.583 1.041-4.292-3.542-0.583-5.458 1.167-2.542 3.5-2.542 3.5-2.813-0.604-2.167-3.542c0.675-3.070 4.88-2.708 4.88-2.708 0.875 0.167 0.912 0.25 1.203-0.042s0.5-1.042-0.875-1.083-5.5 0.635-6.292 3.375c-0.843 2.914 0.718 4.999 2.811 5.322 0 0-1.144 5.053 0.272 7.553s3.47 2.459 4.298 2.459 2.286-0.458 2.703-1.125c0 0-0.197 1.791-0.362 2.44 0 0-3.467-0.047-4.554 0.518-1.844 0.959-1.458 3.24-0.75 4.052 0.602 0.69 2.406 1.063 3.708 0.448 1.353-0.639 2.432-1.869 2.774-3.849 0 0 3.184-0.235 6.267 0.682s7.378 1.778 8.67 1.778 4.023-0.369 4.163-1.445c0.093-0.719-0.171-1.081-0.587-1.206zM7.931 4.664s1.641-1.25 2.422-0.469c0 0 0.625 0.641 0.047 1.406-0.328 0.434-1.198 1.795-5.328 2.469-0 0.001 1.296-2.281 2.859-3.406zM8.063 24.117s-2.265 1.235-2.524-0.438c-0.167-1.079 0.445-1.59 0.843-1.785s0.938-0.439 3.289-0.355c0 0 0 1.664-1.61 2.578z"></path>
<path d="M36.788 12.239l-0.001 3.385c-0.004 0.019-0.010 0.037-0.011 0.057-0.017 0.466-0.209 0.867-0.431 1.269-0.16 0.283-0.356 0.525-0.587 0.729l-0.003 0.003c-0.267 0.235-0.438-0.282-0.539-0.492-0.696-1.457-0.363-3.406-0.093-4.931 0.129-0.727-1.353-0.538-1.468 0.111-0.167 0.944-0.434 2.559-0.273 3.953-0.294 0.050-0.584 0.183-0.67 0.369-0.255 0.544-1.005 2.352-1.916 1.629-0.66-0.523-0.73-1.872-0.8-2.634-0.096-1.056 0.077-2.133 0.408-3.133-0.029 0.086 0.57-1.412 0.835-0.851 0.163 0.345 0.016 1.321-0.304 1.561-0.785 0.591 0.438 0.835 0.912 0.478 0.901-0.678 1.525-2.854-0.037-3.116-1.732-0.29-2.719 1.462-3.081 2.848-0.168 0.639-0.282 1.537-0.252 2.443-0.241 0.416-1.049 1.767-1.523 2.013-0.563 0.292-0.552-0.114-0.531-0.375s0.271-2.573 0.407-4.136c0.087-1.007-0.031-1.386-0.25-1.823s-1.997-1.412-3.573 0.416c-1.091 1.267-1.456 2.463-1.54 3.527-0.107 0.213-0.221 0.437-0.355 0.681-0.75 1.375-1.692 1.954-2.031 1-0.297-0.836-0.453-1.851-0.375-3.094 0.003-0.044 1.75-2.5 2.531-5.875s0.625-5.031 0.219-5.313-2.125-0.969-3.156 3.125c-0.762 3.024-1.069 6.25-0.782 8.94-0.246 0.533-0.451 0.932-0.669 1.323l0.054-0.106c-0.75 1.375-1.692 1.954-2.031 1-0.297-0.836-0.453-1.851-0.375-3.094 0.002-0.044 1.75-2.5 2.531-5.875s0.625-5.031 0.219-5.313-2.125-0.969-3.156 3.125-1.232 8.563-0.25 11.563c0 0 0.54 1.688 1.552 1.563 0.836-0.104 1.828-0.923 2.414-2.453 0.072 0.308 0.151 0.608 0.244 0.89 0 0 0.541 1.688 1.552 1.563 0.688-0.085 1.482-0.66 2.070-1.712 0.355 0.919 1.119 1.67 2.107 1.492 1.334-0.239 1.609-0.966 1.609-0.966s-0.026 1.192 0.828 1.192c0.762 0 1.364-0.445 1.969-1.579 0.204-0.385 0.321-0.609 0.387-0.741 0.178 1.072 0.62 2.027 1.509 2.415 1.488 0.649 2.81-0.586 3.583-1.804 0.236 0.599 0.62 1.078 1.23 1.308 0.669 0.253 1.33 0.006 1.886-0.464-0.002 0.587-0.008 1.173-0.013 1.759-0.292 0-0.62 0.072-0.773 0.207-1.602 1.413-2.299 3.12-2.097 5.261 0.117 1.24 1.288 1.799 2.362 1.331 1.55-0.675 1.785-3.011 1.915-4.418 0.313-3.415 0.069-6.97 0.069-10.396 0-0.646-1.453-0.351-1.453 0.165zM15.126 6.641c0.344-1.328 0.665-1.859 0.977-1.859s0.469 0.359 0.235 1.5-0.994 4.313-2.047 6.375c0 0 0.492-4.687 0.835-6.016zM19.335 6.641c0.344-1.328 0.665-1.859 0.977-1.859s0.469 0.359 0.235 1.5-0.994 4.313-2.047 6.375c0 0 0.492-4.687 0.835-6.016zM25.765 12.854c-0.037 0.29-0.23 2.146-0.48 3.146s-0.477 1.39-1.291 1.719c-0.852 0.344-1.219-0.709-1.219-0.709-0.573-1.604 0.198-3.021 0.834-3.96s1.287-1.048 1.656-0.978c0.296 0.078 0.512 0.343 0.512 0.659 0 0.043-0.004 0.085-0.012 0.126l0.001-0.004zM36.751 21.882c-0.019 1.341-0.191 2.689-0.789 3.905-0.35 0.073-0.514-0.058-0.62-0.619-0.032-0.22-0.050-0.474-0.050-0.733 0-0.315 0.027-0.624 0.079-0.925l-0.005 0.032c0.12-1.011 0.691-1.868 1.392-2.576-0.004 0.305-0.002 0.61-0.007 0.916zM46.151 10.825c-1.27-0.614-2.405-1.645-2.858-3-0.639-1.913 1.464-3.324 3.138-3.237 1.744 0.090 2.569 1.813 2.483 3.354-0.031 0.547-0.374 1.778-1.048 1.139-0.475-0.453-0.684-1.188-0.783-1.816-0.096-0.605-1.55-0.247-1.449 0.388 0.289 1.829 2.264 3.844 3.949 1.932 1.507-1.709 0.828-4.731-1.287-5.617-2.261-0.946-5.068 0.038-6.264 2.163-1.366 2.425 1.374 4.799 3.315 5.66 3.112 1.669 3.227 7.027-0.909 7.063-1.715 0.015-3.309-1.219-3.846-2.805-0.286-0.844-0.139-3.777 1.007-4.002 0.904-0.177 0.655-1.020-0.227-0.847-1.856 0.364-2.54 2.758-2.361 4.429 0.288 2.671 2.789 4.169 5.316 4.148 2.341-0.020 4.327-1.465 4.813-3.774 0.469-2.241-0.956-4.384-2.988-5.18z"></path>
<path d="M55.441 18.766c-1.428-0.776-0.611-3.781-0.395-4.938 0.139-0.746 0.778-1.897-0.247-2.148-1.193-0.292-2.611 0.844-3.639 1.929 0.006-1.253 0.085-2.499 0.276-3.739 1.544-0.788 2.7-1.91 3.591-3.697 0.648-1.302 0.971-3.986-1.23-3.211-1.993 0.701-2.688 3.009-3.309 4.844-0.213 0.609-0.403 1.345-0.534 2.102l-0.013 0.087c-0.199 0.080-0.401 0.156-0.609 0.22-0.829 0.256-0.721 0.704 0.119 0.445 0.138-0.043 0.272-0.086 0.404-0.132-0.397 2.806-0.128 5.745 0.124 8.51 0.025 0.27 1.484-0 1.449-0.389-0.114-1.234-0.207-2.461-0.248-3.682 0.142-0.052 0.26-0.118 0.316-0.194 0.444-0.588 0.991-1.101 1.54-1.588 0.15-0.13 0.303-0.257 0.46-0.377l0.23-0.169c0.337-0.265 0.4-0.271 0.191-0.020-0.031 0.458-0.23 0.965-0.313 1.416-0.275 1.496-1.063 4.445 0.673 5.387 0.373 0.201 1.715-0.358 1.164-0.657zM52.197 6.715c0.153-0.449 0.358-0.885 0.547-1.318 0.236-0.541 0.865-2.384 1.322-1.502 0.364 0.702-0.213 1.859-0.469 2.534-0.415 1.093-1.127 1.975-2.023 2.648 0.155-0.79 0.357-1.577 0.623-2.362z"></path>
<path d="M60.818 15.264c0.003-1.644-0.188-3.753-2.151-3.931-2.154-0.196-3.003 2.062-3.032 3.745-0.002 0.137 0.068 0.228 0.175 0.284-0.002 1.575 0.38 3.63 2.254 3.598 2.090-0.034 2.752-1.857 2.755-3.697zM58.319 18.001c-1.221-0.485-1.109-2.601-1.026-3.62 0.001-0.010 0.002-0.022 0.002-0.034 0-0.096-0.049-0.18-0.124-0.228l-0.001-0.001c0.151-1.008 0.541-2.515 1.431-1.753 0.708 0.605 0.722 2.074 0.761 2.918 0.026 0.572-0.053 3.112-1.042 2.718zM76.567 24.29c-0.564-1.443-1.794-1.997-3.147-2.064-0.171-0.398-0.36-0.739-0.58-1.058l0.013 0.020c-1.955-2.894-6.594-2.509-9.737-0.974-0.020-0.456-0.045-0.912-0.065-1.365 1.267 0.064 2.5-0.426 3.251-1.498 0.838-1.198 0.717-3.316 0.388-4.657-0.309-1.262-1.544-1.036-2.465-0.617-0.328 0.149-0.639 0.372-0.932 0.63 0.028-0.336 0.056-0.672 0.080-1.007 0.056-0.771-1.421-0.576-1.471 0.101-0.227 3.098-0.148 6.183-0.221 9.27-2.136 1.931-2.674 3.75-2.696 6.030-0.010 1.136 0.967 1.98 1.991 1.193 1.447-1.112 1.886-3.314 2.086-4.992 0.089-0.745 0.099-1.505 0.080-2.264 2.245-1.471 5.317-1.575 7.603-0.050 0.469 0.313 0.856 0.797 1.131 1.348-0.844 0.15-1.656 0.427-2.306 0.741-0.856 0.413-2.128 1.383-2.066 2.468 0.049 0.845 0.514 1.319 1.141 1.489 0.039 0.017 0.085 0.032 0.15 0.042 3.067 0.497 5.352-1.313 4.914-3.869 1.492 0.813 2.053 2.703 1.522 4.33-1.194 3.652-5.792 4.466-8.475 2.027-0.287-0.262-1.592 0.288-1.365 0.496 3.893 3.538 13.529 0.265 11.174-5.771zM61.596 23.402c-0.051 0.869-0.23 1.774-0.572 2.572-0.152 0.336-0.285 0.599-0.429 0.854l0.029-0.055s-0.13 0.032-0.158-0.358c0.013-1.429 0.404-2.788 1.173-3.946-0.013 0.311-0.024 0.622-0.042 0.934zM63.16 14.473c0.028-0.025 0.052-0.053 0.072-0.084l0.001-0.002c0.258-0.459 0.603-0.864 0.954-1.254 0.263-0.293 0.559-0.569 0.901-0.77 0.162 0.081 0.327 0.495 0.388 1.066 0.151 1.386 0.219 5.048-1.972 4.704-0.105-0.017-0.285 0.021-0.474 0.085v-0.020c-0.030-1.239 0.038-2.483 0.129-3.726zM69.7 26.346c-0.008-0.002-0.019-0-0.028-0.002-0.844-0.199-0.751-0.995-0.644-1.543 0.246-1.262 1.788-1.942 3.058-1.98 0.642 1.784 0.148 3.935-2.386 3.524z"></path>
</svg>
