<!-- Generated by IcoMoon.io -->
<svg version="1.1" xmlns="http://www.w3.org/2000/svg" width="94" height="32" viewBox="0 0 94 32">
<title>logo-htmlacademy</title>
<path d="M38.739 23.325c0.173-0.007 0.336-0.038 0.49-0.090l-0.012 0.004v1.155c-0.296 0.116-0.64 0.182-0.998 0.182-0.009 0-0.019-0-0.028-0h0.001c-0.036 0.003-0.078 0.005-0.12 0.005-0.592 0-1.102-0.355-1.327-0.864l-0.004-0.009c-0.716 0.584-1.64 0.939-2.647 0.939-0.028 0-0.056-0-0.083-0.001l0.004 0c-1.311 0-2.527-0.721-2.527-2.214 0-1.85 1.737-2.423 3.222-2.423 0.673 0.011 1.322 0.090 1.948 0.229l-0.064-0.012v-0.261c0-0.868-0.66-1.537-1.902-1.537-0.944 0.002-1.839 0.206-2.646 0.572l0.040-0.016v-1.476c0.824-0.292 1.775-0.466 2.765-0.478l0.005-0c2.049 0 3.309 0.973 3.309 3.17v2.605c-0.001 0.014-0.002 0.029-0.002 0.045 0 0.244 0.187 0.445 0.426 0.467l0.002 0h0.148zM33.146 22.344c0.044 0.611 0.551 1.090 1.169 1.090 0.035 0 0.069-0.002 0.103-0.004l-0.004 0h0.096c0.002 0 0.003 0 0.005 0 0.816 0 1.554-0.332 2.088-0.868l0-0v-1.233c-0.467-0.104-1.008-0.17-1.562-0.182l-0.010-0c-0.868 0-1.876 0.287-1.876 1.198v0zM43.88 17.038c0.031-0.001 0.068-0.001 0.104-0.001 0.782 0 1.515 0.207 2.149 0.568l-0.021-0.011v1.494c-0.556-0.381-1.244-0.608-1.984-0.608-0.005 0-0.009 0-0.014 0h0.001c-0.043-0.003-0.093-0.004-0.144-0.004-1.319 0-2.388 1.069-2.388 2.388s1.069 2.388 2.388 2.388c0.051 0 0.101-0.002 0.151-0.005l-0.007 0c0.776-0.003 1.503-0.209 2.132-0.567l-0.021 0.011v1.485c-0.667 0.313-1.448 0.496-2.271 0.496-0.044 0-0.088-0.001-0.132-0.002l0.007 0c-0.070 0.005-0.152 0.008-0.234 0.008-1.933 0-3.516-1.5-3.647-3.4l-0.001-0.011q0-0.182 0-0.356c-0.001-0.037-0.002-0.080-0.002-0.123 0-2.030 1.612-3.683 3.626-3.749l0.006-0h0.33zM54.448 23.325c0.173-0.007 0.336-0.038 0.49-0.090l-0.012 0.004v1.155c-0.296 0.116-0.64 0.182-0.998 0.182-0.009 0-0.019-0-0.028-0h0.001c-0.036 0.003-0.078 0.005-0.12 0.005-0.592 0-1.102-0.355-1.327-0.864l-0.004-0.009c-0.716 0.584-1.64 0.939-2.647 0.939-0.028 0-0.056-0-0.083-0.001l0.004 0c-1.311 0-2.527-0.721-2.527-2.214 0-1.85 1.737-2.423 3.222-2.423 0.673 0.011 1.322 0.090 1.948 0.229l-0.064-0.012v-0.261c0-0.868-0.66-1.537-1.902-1.537-0.944 0.002-1.839 0.206-2.646 0.572l0.040-0.016v-1.476c0.824-0.292 1.775-0.466 2.765-0.478l0.005-0c2.049 0 3.309 0.973 3.309 3.17v2.605c-0.001 0.014-0.002 0.029-0.002 0.045 0 0.244 0.187 0.445 0.426 0.467l0.002 0h0.148zM48.855 22.344c0.044 0.611 0.551 1.090 1.169 1.090 0.038 0 0.075-0.002 0.112-0.005l-0.005 0h0.096c0.002 0 0.003 0 0.005 0 0.816 0 1.554-0.332 2.088-0.868l0-0v-1.233c-0.467-0.104-1.008-0.17-1.562-0.182l-0.010-0c-0.92 0-1.876 0.287-1.876 1.198v0zM63.392 13.877v10.594h-1.433v-1.146c-0.621 0.817-1.594 1.338-2.688 1.338-0.029 0-0.057-0-0.086-0.001l0.004 0c-1.996-0.139-3.563-1.793-3.563-3.812s1.567-3.673 3.551-3.812l0.012-0.001c0.034-0.001 0.074-0.002 0.114-0.002 0.992 0 1.881 0.436 2.488 1.127l0.003 0.004v-4.29h1.598zM59.458 18.41c-1.324 0-2.397 1.073-2.397 2.397s1.073 2.397 2.397 2.397v0c0.012 0 0.027 0 0.042 0 1.020 0 1.897-0.615 2.279-1.495l0.006-0.016v-1.737c-0.403-0.892-1.285-1.502-2.31-1.502v0zM68.602 17.038c2.874 0 3.873 2.327 3.404 4.42h-5.401c0.182 1.303 1.45 1.832 2.77 1.832 0.005 0 0.011 0 0.018 0 0.827 0 1.609-0.189 2.306-0.526l-0.032 0.014v1.389c-0.718 0.314-1.554 0.497-2.433 0.497-0.060 0-0.121-0.001-0.181-0.003l0.009 0c-2.197 0-4.125-1.233-4.125-3.838-0.003-0.055-0.005-0.12-0.005-0.186 0-1.951 1.54-3.543 3.471-3.626l0.008-0h0.191zM68.681 18.375c-0.043-0.003-0.094-0.005-0.145-0.005-1.040 0-1.893 0.802-1.974 1.822l-0 0.007v0.052h4.038c0.004-0.044 0.006-0.094 0.006-0.146 0-0.959-0.778-1.737-1.737-1.737-0.054 0-0.108 0.002-0.161 0.007l0.007-0zM73.656 24.454v-7.216h1.433v0.868c0.597-0.666 1.455-1.087 2.411-1.103l0.003-0c0.046-0.003 0.1-0.005 0.154-0.005 0.906 0 1.698 0.485 2.132 1.209l0.006 0.011c0.632-0.686 1.526-1.124 2.522-1.155l0.005-0c0.040-0.002 0.086-0.003 0.132-0.003 1.468 0 2.657 1.19 2.657 2.657 0 0.084-0.004 0.166-0.011 0.248l0.001-0.010v4.516h-1.65v-4.472c0.005-0.044 0.008-0.095 0.008-0.146 0-0.713-0.541-1.3-1.235-1.373l-0.006-0h-0.226c-0.737 0.047-1.379 0.416-1.793 0.966l-0.004 0.006v5.019h-1.65v-4.472c0.004-0.041 0.007-0.087 0.007-0.135 0-0.722-0.554-1.315-1.261-1.376l-0.005-0h-0.174c-0.799 0.072-1.486 0.495-1.913 1.112l-0.006 0.009v4.889h-1.502zM92.162 17.22h1.65l-3.395 8.215c-0.782 1.884-1.815 2.484-2.909 2.484-0.341-0.003-0.669-0.048-0.984-0.128l0.029 0.006v-1.363c0.213 0.066 0.458 0.104 0.712 0.104 0.009 0 0.018-0 0.027-0h-0.001c0.782 0 1.372-0.556 1.798-1.65l0.148-0.365-3.474-7.294h1.737l2.484 5.462zM33.633 1.25v4.133c0.597-0.608 1.426-0.986 2.344-0.99h0.001c0.050-0.003 0.109-0.005 0.168-0.005 1.559 0 2.822 1.264 2.822 2.822 0 0.048-0.001 0.095-0.004 0.142l0-0.007v4.472h-1.624v-4.264c0.006-0.052 0.010-0.112 0.010-0.174 0-0.81-0.613-1.477-1.401-1.563l-0.007-0.001h-0.261c-0.852 0.053-1.586 0.518-2.008 1.196l-0.006 0.011v4.793h-1.65v-10.568h1.65zM43.367 1.989v2.605h2.605v1.389h-2.605v3.309c0 0.955 0.434 1.268 1.372 1.268 0 0 0 0 0 0 0.529 0 1.033-0.105 1.493-0.296l-0.026 0.009v1.389c-0.558 0.193-1.201 0.304-1.871 0.304-0.017 0-0.034-0-0.051-0l0.003 0c-0.083 0.011-0.179 0.017-0.277 0.017-1.223 0-2.214-0.991-2.214-2.214 0-0.064 0.003-0.128 0.008-0.191l-0.001 0.008v-3.621h-1.355v-1.415h1.303v-2.188zM48.056 11.81v-7.242h1.442v0.868c0.594-0.667 1.448-1.091 2.402-1.111l0.004-0c0.047-0.003 0.101-0.005 0.156-0.005 0.881 0 1.654 0.458 2.095 1.15l0.006 0.010c0.632-0.686 1.526-1.124 2.522-1.155l0.005-0c0.031-0.001 0.067-0.002 0.104-0.002 1.468 0 2.657 1.19 2.657 2.657 0 0.105-0.006 0.208-0.018 0.31l0.001-0.012v4.524h-1.65v-4.472c0.005-0.044 0.008-0.095 0.008-0.146 0-0.713-0.541-1.3-1.235-1.373l-0.006-0h-0.2c-0.737 0.047-1.379 0.416-1.793 0.966l-0.005 0.006v5.019h-1.65v-4.472c0.005-0.044 0.008-0.095 0.008-0.146 0-0.713-0.541-1.3-1.235-1.373l-0.006-0h-0.2c-0.799 0.072-1.486 0.495-1.913 1.112l-0.006 0.009v4.889h-1.494zM61.803 1.242h1.589v10.551h-1.589v-10.551zM12.774-0.017h-0.139l-12.635 1.337v23.16l12.635 7.52 12.635-7.52v-23.16zM23.629 23.516l-10.994 6.548-10.985-6.53v-9.5l10.933 6.513v1.146l-7.494-4.429v1.138l7.538 4.524v1.207l-7.529-4.481v1.172l7.538 4.524 7.598-4.55v-4.915l3.387-2.006v9.656zM23.629 12.635l-3.022 1.737-1.389 0.868-6.617-3.969v1.138l5.636 3.404-0.122 0.078-0.868 0.469-4.663-2.779v1.164l3.682 2.188-0.868 0.582-2.779-1.65v1.138l1.824 1.077-1.85 1.094-10.855-6.469 10.864-6.548zM23.629 11.489l-11.046-6.504-10.924 6.504v-8.684l10.985-1.155 10.985 1.155v8.684z"></path>
</svg>
