<!-- Generated by IcoMoon.io -->
<svg version="1.1" xmlns="http://www.w3.org/2000/svg" width="32" height="32" viewBox="0 0 32 32">
<title>loupe</title>
<path d="M31.921 29.227l-9.803-9.801c1.47-1.985 2.353-4.483 2.353-7.186 0-0.002 0-0.003 0-0.005v0c0-6.757-5.478-12.235-12.235-12.235s-12.235 5.478-12.235 12.235c0 6.757 5.478 12.235 12.235 12.235v0c0 0 0 0 0.001 0 2.72 0 5.232-0.892 7.258-2.4l-0.032 0.023 9.798 9.796 2.662-2.662zM12.235 20.706c-4.67 0-8.471-3.8-8.471-8.471s3.8-8.471 8.471-8.471 8.471 3.8 8.471 8.471-3.8 8.471-8.471 8.471z"></path>
</svg>
