<!-- Generated by IcoMoon.io -->
<svg version="1.1" xmlns="http://www.w3.org/2000/svg" width="18" height="32" viewBox="0 0 18 32">
<title>pin</title>
<path d="M9.143 1.623c3.571 0 6.465 2.895 6.465 6.465 0 1.168-0.311 2.263-0.854 3.209 1.029 0.147 1.822 1.030 1.822 2.1 0 0 0 0 0 0 0 1.173-0.951 2.124-2.124 2.124-0 0-0 0-0 0v0c-1.070 0-1.953-0.792-2.1-1.822-0.081 0.046-0.162 0.091-0.245 0.133-0.231 1.431-1.469 2.525-2.965 2.525s-2.734-1.094-2.965-2.525c-0.118-0.060-0.198-0.105-0.277-0.15l0.033 0.017c-0.147 1.030-1.030 1.822-2.1 1.822-1.173 0-2.124-0.951-2.124-2.124 0-1.070 0.792-1.953 1.822-2.1-0.537-0.919-0.854-2.024-0.854-3.202 0-0.002 0-0.005 0-0.007v0c0-3.571 2.895-6.465 6.465-6.465zM9.143 0.023c-4.447 0-8.065 3.618-8.065 8.065 0 0.833 0.13 1.66 0.381 2.449-0.827 0.689-1.349 1.726-1.349 2.861 0 2.053 1.671 3.724 3.724 3.724 0.722 0 1.404-0.211 1.982-0.578 0.841 0.879 2.025 1.414 3.327 1.414s2.486-0.535 3.327-1.414c0.561 0.362 1.247 0.577 1.982 0.578h0c2.053 0 3.724-1.671 3.724-3.724 0-1.134-0.522-2.171-1.349-2.861 0.241-0.732 0.381-1.574 0.381-2.449v-0c-0-4.447-3.618-8.065-8.065-8.065z"></path>
<path d="M14.452 18.036c-0.648 0-1.271-0.137-1.838-0.384-0.085 0.069-0.174 0.131-0.263 0.195l0.12 0.12-0.891 0.891-0.382-0.382c-0.157 0.062-0.317 0.118-0.48 0.166l0.539 0.539-0.891 0.891-0.891-0.891 0.356-0.356c-0.226 0.028-0.455 0.047-0.688 0.047-0.226 0-0.448-0.018-0.667-0.044l0.353 0.353-0.891 0.891-0.891-0.891 0.535-0.535c-0.201-0.059-0.361-0.115-0.517-0.178l0.036 0.013-0.377 0.377-0.891-0.891 0.112-0.112c-0.093-0.066-0.185-0.131-0.274-0.203-0.541 0.243-1.173 0.384-1.837 0.384-0 0-0 0-0 0v0c-0.047 0-0.092-0.006-0.138-0.007-0.005 0.033-0.008 0.071-0.008 0.11 0 0.093 0.016 0.183 0.046 0.267l-0.002-0.006 4.657 13.057c0.005 0.016 0.014 0.029 0.020 0.044 0.007 0.016 0.013 0.032 0.021 0.047 0.016 0.032 0.034 0.062 0.054 0.091 0.007 0.010 0.012 0.020 0.019 0.029 0.029 0.038 0.060 0.073 0.094 0.105 0.007 0.007 0.016 0.013 0.024 0.019 0.029 0.024 0.058 0.047 0.090 0.067 0.013 0.008 0.027 0.016 0.041 0.024 0.032 0.018 0.064 0.033 0.097 0.046 0.009 0.003 0.016 0.009 0.025 0.012 0.005 0.002 0.009 0.002 0.014 0.004 0.029 0.010 0.059 0.017 0.089 0.024 0.013 0.003 0.025 0.007 0.037 0.009 0.042 0.007 0.085 0.011 0.128 0.011s0.086-0.004 0.128-0.011c0.013-0.002 0.026-0.006 0.039-0.009 0.030-0.006 0.059-0.013 0.088-0.023 0.005-0.002 0.009-0.002 0.014-0.004 0.009-0.003 0.016-0.008 0.025-0.012 0.033-0.013 0.065-0.028 0.096-0.046 0.018-0.010 0.032-0.018 0.045-0.026l-0.003 0.002c0.031-0.020 0.061-0.043 0.089-0.067 0.008-0.007 0.016-0.013 0.024-0.020 0.034-0.032 0.066-0.067 0.094-0.105 0.007-0.009 0.012-0.019 0.019-0.029 0.020-0.029 0.039-0.060 0.055-0.092 0.008-0.015 0.014-0.031 0.021-0.046s0.015-0.029 0.020-0.045l4.657-13.057c0.028-0.078 0.044-0.167 0.044-0.261 0-0.039-0.003-0.077-0.008-0.114l0.001 0.004c-0.046 0.001-0.091 0.007-0.138 0.007zM11.258 21.609l-0.891 0.891-0.891-0.891 0.891-0.891 0.891 0.891zM8.261 22.824l0.891-0.891 0.891 0.891-0.891 0.891-0.891-0.891zM10.043 25.252l-0.891 0.891-0.891-0.891 0.891-0.891 0.891 0.891zM9.152 19.504l0.891 0.891-0.891 0.891-0.891-0.891 0.891-0.891zM8.829 21.609l-0.891 0.891-0.891-0.891 0.891-0.891 0.891 0.891zM5.423 18.376l0.087-0.087 0.891 0.891-0.51 0.509-0.468-1.314zM6.061 20.167l0.663-0.663 0.891 0.891-0.891 0.891-0.409-0.409-0.253-0.71zM6.7 21.957l0.024-0.024 0.891 0.891-0.447 0.447-0.468-1.314zM7.661 24.652l-0.323-0.905 0.6-0.6 0.891 0.891-0.891 0.891-0.277-0.277zM8.445 26.851l-0.426-1.194 0.81 0.81-0.384 0.384zM9.143 28.807l-0.528-1.48 0.537-0.537 0.523 0.523-0.533 1.494zM9.845 26.837l-0.37-0.37 0.781-0.781-0.411 1.151zM10.614 24.681l-0.248 0.248-0.891-0.891 0.891-0.891 0.586 0.586-0.338 0.948zM11.123 23.256l-0.433-0.433 0.891-0.891 0.011 0.010-0.469 1.314zM11.961 20.906l-0.38 0.38-0.891-0.891 0.891-0.891 0.649 0.649-0.269 0.753zM12.4 19.676l-0.496-0.496 0.891-0.891 0.073 0.073-0.468 1.314z"></path>
</svg>
