<!-- Generated by IcoMoon.io -->
<svg version="1.1" xmlns="http://www.w3.org/2000/svg" width="32" height="32" viewBox="0 0 32 32">
<title>radio-on</title>
<path d="M16 5.12c5.999 0 10.88 4.881 10.88 10.88s-4.881 10.88-10.88 10.88c-5.999 0-10.88-4.881-10.88-10.88s4.881-10.88 10.88-10.88zM16 0c-8.836 0-16 7.164-16 16s7.164 16 16 16 16-7.164 16-16-7.164-16-16-16z"></path>
<path d="M21.76 16c0 3.181-2.579 5.76-5.76 5.76s-5.76-2.579-5.76-5.76c0-3.181 2.579-5.76 5.76-5.76s5.76 2.579 5.76 5.76z"></path>
</svg>
