<!-- Generated by IcoMoon.io -->
<svg version="1.1" xmlns="http://www.w3.org/2000/svg" width="32" height="32" viewBox="0 0 32 32">
<title>thermometer</title>
<path d="M16 0c-8.837 0-16 7.163-16 16s7.163 16 16 16 16-7.163 16-16-7.163-16-16-16zM16 30.694c-8.103 0-14.694-6.592-14.694-14.694s6.591-14.694 14.694-14.694c8.102 0 14.694 6.591 14.694 14.694s-6.592 14.694-14.694 14.694z"></path>
<path d="M18.898 8.571c0-1.812-1.474-3.286-3.286-3.286s-3.286 1.474-3.286 3.286v9.561c-0.808 0.828-1.306 1.961-1.306 3.21 0 0.002 0 0.003 0 0.005v-0c0 2.566 2.087 4.653 4.653 4.653s4.653-2.087 4.653-4.653c-0.002-1.315-0.549-2.501-1.427-3.346l-0.002-0.001v-9.428zM19.020 21.347c-0.037 1.82-1.521 3.281-3.347 3.281s-3.31-1.461-3.347-3.278l-0-0.003c0-1.076 0.517-2.023 1.306-2.635v-10.141c0-1.093 0.886-1.979 1.979-1.979s1.979 0.886 1.979 1.979v10.039c0.868 0.611 1.428 1.609 1.429 2.737v0z"></path>
<path d="M16.327 19.304v-10.691c0-0.361-0.292-0.653-0.653-0.653s-0.653 0.292-0.653 0.653v0 10.691c-0.766 0.275-1.305 0.994-1.306 1.839v0c0 1.082 0.877 1.959 1.959 1.959s1.959-0.877 1.959-1.959v0c-0.002-0.845-0.54-1.564-1.293-1.835l-0.014-0.004zM20.245 7.837h3.918v1.306h-3.918zM20.245 10.449h3.918v1.306h-3.918zM20.245 13.061h3.918v1.306h-3.918zM20.245 15.673h3.918v1.306h-3.918z"></path>
</svg>
