<!-- Generated by IcoMoon.io -->
<svg version="1.1" xmlns="http://www.w3.org/2000/svg" width="32" height="32" viewBox="0 0 32 32">
<title>vk</title>
<path d="M16.637 14.495c0.402-0.019 0.719-0.082 0.951-0.188 0.326-0.145 0.54-0.33 0.641-0.559s0.15-0.496 0.15-0.797c0-0.232-0.058-0.465-0.174-0.697s-0.322-0.405-0.617-0.517c-0.264-0.1-0.592-0.155-0.984-0.165-0.438-0.009-0.954-0.014-1.472-0.014-0.063 0-0.127 0-0.19 0l0.010-0h-0.339v2.965h0.565c0.571 0 1.057-0.009 1.459-0.028zM18.118 17.084c-0.282-0.081-0.672-0.125-1.166-0.132-0.451-0.006-0.984-0.009-1.518-0.009-0.011 0-0.022 0-0.034 0h-0.788v3.493h0.264c1.014 0 1.74-0.003 2.18-0.009 0.438-0.002 0.854-0.092 1.233-0.253l-0.021 0.008c0.377-0.157 0.633-0.364 0.774-0.625s0.214-0.562 0.214-0.9c0-0.446-0.088-0.788-0.261-1.030-0.17-0.241-0.464-0.423-0.877-0.543z"></path>
<path d="M16 0c-8.836 0-16 7.164-16 16 0 8.837 7.164 16 16 16 8.837 0 16-7.163 16-16s-7.163-16-16-16zM22.602 20.531c-0.274 0.535-0.653 0.979-1.114 1.32l-0.010 0.007c-0.552 0.415-1.161 0.71-1.823 0.886s-1.501 0.264-2.519 0.264h-6.121v-14.021h5.443c1.13 0 1.957 0.038 2.48 0.113 0.583 0.090 1.109 0.265 1.59 0.513l-0.029-0.013c0.533 0.27 0.929 0.632 1.189 1.087s0.392 0.975 0.392 1.558c0 0.678-0.179 1.278-0.536 1.795-0.358 0.518-0.863 0.92-1.517 1.208v0.075c0.917 0.182 1.642 0.559 2.179 1.13s0.807 1.325 0.807 2.261c0 0.678-0.138 1.283-0.411 1.817z"></path>
</svg>
